<svg width="21" height="20" viewBox="0 0 21 20" fill="none" xmlns="http://www.w3.org/2000/svg">
<g id="House">
<path id="Vector" d="M17.5961 8.10717L11.3461 2.21029C11.343 2.20763 11.3402 2.20476 11.3375 2.2017C11.1074 1.99243 10.8075 1.87646 10.4965 1.87646C10.1854 1.87646 9.88558 1.99243 9.65547 2.2017L9.64688 2.21029L3.40391 8.10717C3.27656 8.22427 3.17491 8.36653 3.10538 8.52494C3.03586 8.68336 2.99997 8.85448 3 9.02748V16.2501C3 16.5817 3.1317 16.8996 3.36612 17.134C3.60054 17.3684 3.91848 17.5001 4.25 17.5001H8C8.33152 17.5001 8.64946 17.3684 8.88388 17.134C9.1183 16.8996 9.25 16.5817 9.25 16.2501V12.5001H11.75V16.2501C11.75 16.5817 11.8817 16.8996 12.1161 17.134C12.3505 17.3684 12.6685 17.5001 13 17.5001H16.75C17.0815 17.5001 17.3995 17.3684 17.6339 17.134C17.8683 16.8996 18 16.5817 18 16.2501V9.02748C18 8.85448 17.9641 8.68336 17.8946 8.52494C17.8251 8.36653 17.7234 8.22427 17.5961 8.10717ZM16.75 16.2501H13V12.5001C13 12.1686 12.8683 11.8507 12.6339 11.6163C12.3995 11.3818 12.0815 11.2501 11.75 11.2501H9.25C8.91848 11.2501 8.60054 11.3818 8.36612 11.6163C8.1317 11.8507 8 12.1686 8 12.5001V16.2501H4.25V9.02748L4.25859 9.01967L10.5 3.12514L16.7422 9.01811L16.7508 9.02592L16.75 16.2501Z" fill="#AAADB0"/>
</g>
</svg>
