<svg width="21" height="20" viewBox="0 0 21 20" fill="none" xmlns="http://www.w3.org/2000/svg">
<g id="SuitcaseRolling">
<path id="Vector" d="M8.625 6.875V14.375C8.625 14.5408 8.55915 14.6997 8.44194 14.8169C8.32473 14.9342 8.16576 15 8 15C7.83424 15 7.67527 14.9342 7.55806 14.8169C7.44085 14.6997 7.375 14.5408 7.375 14.375V6.875C7.375 6.70924 7.44085 6.55027 7.55806 6.43306C7.67527 6.31585 7.83424 6.25 8 6.25C8.16576 6.25 8.32473 6.31585 8.44194 6.43306C8.55915 6.55027 8.625 6.70924 8.625 6.875ZM10.5 6.25C10.3342 6.25 10.1753 6.31585 10.0581 6.43306C9.94085 6.55027 9.875 6.70924 9.875 6.875V14.375C9.875 14.5408 9.94085 14.6997 10.0581 14.8169C10.1753 14.9342 10.3342 15 10.5 15C10.6658 15 10.8247 14.9342 10.9419 14.8169C11.0592 14.6997 11.125 14.5408 11.125 14.375V6.875C11.125 6.70924 11.0592 6.55027 10.9419 6.43306C10.8247 6.31585 10.6658 6.25 10.5 6.25ZM13 6.25C12.8342 6.25 12.6753 6.31585 12.5581 6.43306C12.4408 6.55027 12.375 6.70924 12.375 6.875V14.375C12.375 14.5408 12.4408 14.6997 12.5581 14.8169C12.6753 14.9342 12.8342 15 13 15C13.1658 15 13.3247 14.9342 13.4419 14.8169C13.5592 14.6997 13.625 14.5408 13.625 14.375V6.875C13.625 6.70924 13.5592 6.55027 13.4419 6.43306C13.3247 6.31585 13.1658 6.25 13 6.25ZM16.75 5V16.25C16.75 16.5815 16.6183 16.8995 16.3839 17.1339C16.1495 17.3683 15.8315 17.5 15.5 17.5H14.25V18.75C14.25 18.9158 14.1842 19.0747 14.0669 19.1919C13.9497 19.3092 13.7908 19.375 13.625 19.375C13.4592 19.375 13.3003 19.3092 13.1831 19.1919C13.0658 19.0747 13 18.9158 13 18.75V17.5H8V18.75C8 18.9158 7.93415 19.0747 7.81694 19.1919C7.69973 19.3092 7.54076 19.375 7.375 19.375C7.20924 19.375 7.05027 19.3092 6.93306 19.1919C6.81585 19.0747 6.75 18.9158 6.75 18.75V17.5H5.5C5.16848 17.5 4.85054 17.3683 4.61612 17.1339C4.3817 16.8995 4.25 16.5815 4.25 16.25V5C4.25 4.66848 4.3817 4.35054 4.61612 4.11612C4.85054 3.8817 5.16848 3.75 5.5 3.75H7.375V1.875C7.375 1.37772 7.57254 0.900805 7.92417 0.549175C8.27581 0.197544 8.75272 0 9.25 0L11.75 0C12.2473 0 12.7242 0.197544 13.0758 0.549175C13.4275 0.900805 13.625 1.37772 13.625 1.875V3.75H15.5C15.8315 3.75 16.1495 3.8817 16.3839 4.11612C16.6183 4.35054 16.75 4.66848 16.75 5ZM8.625 3.75H12.375V1.875C12.375 1.70924 12.3092 1.55027 12.1919 1.43306C12.0747 1.31585 11.9158 1.25 11.75 1.25H9.25C9.08424 1.25 8.92527 1.31585 8.80806 1.43306C8.69085 1.55027 8.625 1.70924 8.625 1.875V3.75ZM15.5 16.25V5H5.5V16.25H15.5Z" fill="#AAADB0"/>
</g>
</svg>
