<svg width="21" height="20" viewBox="0 0 21 20" fill="none" xmlns="http://www.w3.org/2000/svg">
<g id="User">
<path id="Vector" d="M18.5407 16.5627C17.3508 14.5056 15.5172 13.0306 13.3774 12.3314C14.4358 11.7013 15.2582 10.7412 15.7182 9.59845C16.1781 8.45573 16.2503 7.19361 15.9235 6.00592C15.5968 4.81823 14.8892 3.77064 13.9094 3.02402C12.9296 2.2774 11.7318 1.87305 10.5 1.87305C9.26821 1.87305 8.07044 2.2774 7.09067 3.02402C6.1109 3.77064 5.40331 4.81823 5.07654 6.00592C4.74978 7.19361 4.82193 8.45573 5.28189 9.59845C5.74186 10.7412 6.56422 11.7013 7.62268 12.3314C5.48284 13.0299 3.64925 14.5049 2.4594 16.5627C2.41577 16.6338 2.38683 16.713 2.37429 16.7955C2.36174 16.878 2.36585 16.9622 2.38638 17.0431C2.4069 17.124 2.44341 17.2 2.49377 17.2665C2.54413 17.3331 2.60731 17.3889 2.67958 17.4306C2.75185 17.4724 2.83175 17.4992 2.91457 17.5096C2.99738 17.5199 3.08143 17.5136 3.16176 17.491C3.24209 17.4683 3.31708 17.4298 3.38228 17.3777C3.44749 17.3256 3.50161 17.261 3.54143 17.1877C5.01331 14.6439 7.61487 13.1252 10.5 13.1252C13.3852 13.1252 15.9867 14.6439 17.4586 17.1877C17.4985 17.261 17.5526 17.3256 17.6178 17.3777C17.683 17.4298 17.758 17.4683 17.8383 17.491C17.9186 17.5136 18.0027 17.5199 18.0855 17.5096C18.1683 17.4992 18.2482 17.4724 18.3205 17.4306C18.3927 17.3889 18.4559 17.3331 18.5063 17.2665C18.5566 17.2 18.5932 17.124 18.6137 17.0431C18.6342 16.9622 18.6383 16.878 18.6258 16.7955C18.6132 16.713 18.5843 16.6338 18.5407 16.5627ZM6.12503 7.50017C6.12503 6.63488 6.38162 5.78902 6.86235 5.06955C7.34308 4.35009 8.02636 3.78933 8.82579 3.4582C9.62522 3.12707 10.5049 3.04043 11.3535 3.20924C12.2022 3.37805 12.9818 3.79473 13.5936 4.40658C14.2055 5.01843 14.6222 5.79799 14.791 6.64665C14.9598 7.49532 14.8731 8.37499 14.542 9.17441C14.2109 9.97384 13.6501 10.6571 12.9306 11.1379C12.2112 11.6186 11.3653 11.8752 10.5 11.8752C9.34009 11.8739 8.22801 11.4126 7.40781 10.5924C6.5876 9.77219 6.12627 8.66011 6.12503 7.50017Z" fill="#AAADB0"/>
</g>
</svg>
