<svg width="21" height="20" viewBox="0 0 21 20" fill="none" xmlns="http://www.w3.org/2000/svg">
<g id="House">
<path id="Vector" d="M18 9.02748V16.2501C18 16.5817 17.8683 16.8996 17.6339 17.134C17.3995 17.3684 17.0815 17.5001 16.75 17.5001H13.625C13.2935 17.5001 12.9755 17.3684 12.7411 17.134C12.5067 16.8996 12.375 16.5817 12.375 16.2501V13.1251C12.375 12.9594 12.3092 12.8004 12.1919 12.6832C12.0747 12.566 11.9158 12.5001 11.75 12.5001H9.25C9.08424 12.5001 8.92527 12.566 8.80806 12.6832C8.69085 12.8004 8.625 12.9594 8.625 13.1251V16.2501C8.625 16.5817 8.4933 16.8996 8.25888 17.134C8.02446 17.3684 7.70652 17.5001 7.375 17.5001H4.25C3.91848 17.5001 3.60054 17.3684 3.36612 17.134C3.1317 16.8996 3 16.5817 3 16.2501V9.02748C2.99997 8.85448 3.03586 8.68336 3.10538 8.52494C3.17491 8.36653 3.27656 8.22427 3.40391 8.10717L9.65391 2.21029L9.6625 2.2017C9.89261 1.99243 10.1925 1.87646 10.5035 1.87646C10.8146 1.87646 11.1144 1.99243 11.3445 2.2017C11.3472 2.20476 11.3501 2.20763 11.3531 2.21029L17.6031 8.10717C17.7292 8.22489 17.8295 8.36742 17.8978 8.52581C17.9661 8.68419 18.0009 8.855 18 9.02748Z" fill="#545759"/>
</g>
</svg>
