<svg width="21" height="20" viewBox="0 0 21 20" fill="none" xmlns="http://www.w3.org/2000/svg">
<g id="SuitcaseRolling">
<path id="Vector" d="M15.5 3.75H13.625V1.875C13.625 1.37772 13.4275 0.900805 13.0758 0.549175C12.7242 0.197544 12.2473 0 11.75 0L9.25 0C8.75272 0 8.27581 0.197544 7.92417 0.549175C7.57254 0.900805 7.375 1.37772 7.375 1.875V3.75H5.5C5.16848 3.75 4.85054 3.8817 4.61612 4.11612C4.3817 4.35054 4.25 4.66848 4.25 5V16.25C4.25 16.5815 4.3817 16.8995 4.61612 17.1339C4.85054 17.3683 5.16848 17.5 5.5 17.5H6.75V18.75C6.75 18.9158 6.81585 19.0747 6.93306 19.1919C7.05027 19.3092 7.20924 19.375 7.375 19.375C7.54076 19.375 7.69973 19.3092 7.81694 19.1919C7.93415 19.0747 8 18.9158 8 18.75V17.5H13V18.75C13 18.9158 13.0658 19.0747 13.1831 19.1919C13.3003 19.3092 13.4592 19.375 13.625 19.375C13.7908 19.375 13.9497 19.3092 14.0669 19.1919C14.1842 19.0747 14.25 18.9158 14.25 18.75V17.5H15.5C15.8315 17.5 16.1495 17.3683 16.3839 17.1339C16.6183 16.8995 16.75 16.5815 16.75 16.25V5C16.75 4.66848 16.6183 4.35054 16.3839 4.11612C16.1495 3.8817 15.8315 3.75 15.5 3.75ZM8 15C8 15.1658 7.93415 15.3247 7.81694 15.4419C7.69973 15.5592 7.54076 15.625 7.375 15.625C7.20924 15.625 7.05027 15.5592 6.93306 15.4419C6.81585 15.3247 6.75 15.1658 6.75 15V6.25C6.75 6.08424 6.81585 5.92527 6.93306 5.80806C7.05027 5.69085 7.20924 5.625 7.375 5.625C7.54076 5.625 7.69973 5.69085 7.81694 5.80806C7.93415 5.92527 8 6.08424 8 6.25V15ZM11.125 15C11.125 15.1658 11.0592 15.3247 10.9419 15.4419C10.8247 15.5592 10.6658 15.625 10.5 15.625C10.3342 15.625 10.1753 15.5592 10.0581 15.4419C9.94085 15.3247 9.875 15.1658 9.875 15V6.25C9.875 6.08424 9.94085 5.92527 10.0581 5.80806C10.1753 5.69085 10.3342 5.625 10.5 5.625C10.6658 5.625 10.8247 5.69085 10.9419 5.80806C11.0592 5.92527 11.125 6.08424 11.125 6.25V15ZM12.375 3.75H8.625V1.875C8.625 1.70924 8.69085 1.55027 8.80806 1.43306C8.92527 1.31585 9.08424 1.25 9.25 1.25H11.75C11.9158 1.25 12.0747 1.31585 12.1919 1.43306C12.3092 1.55027 12.375 1.70924 12.375 1.875V3.75ZM14.25 15C14.25 15.1658 14.1842 15.3247 14.0669 15.4419C13.9497 15.5592 13.7908 15.625 13.625 15.625C13.4592 15.625 13.3003 15.5592 13.1831 15.4419C13.0658 15.3247 13 15.1658 13 15V6.25C13 6.08424 13.0658 5.92527 13.1831 5.80806C13.3003 5.69085 13.4592 5.625 13.625 5.625C13.7908 5.625 13.9497 5.69085 14.0669 5.80806C14.1842 5.92527 14.25 6.08424 14.25 6.25V15Z" fill="#545759"/>
</g>
</svg>
