<svg width="21" height="20" viewBox="0 0 21 20" fill="none" xmlns="http://www.w3.org/2000/svg">
<g id="User">
<path id="Vector" d="M18.5414 17.1876C18.4865 17.2826 18.4076 17.3615 18.3125 17.4164C18.2175 17.4712 18.1097 17.5001 18 17.5001H2.99997C2.89031 17.4999 2.78262 17.471 2.68769 17.4161C2.59277 17.3612 2.51396 17.2823 2.45918 17.1873C2.4044 17.0923 2.37558 16.9845 2.37561 16.8749C2.37564 16.7652 2.40452 16.6575 2.45934 16.5626C3.64919 14.5055 5.48278 13.0305 7.62263 12.3313C6.56416 11.7012 5.7418 10.741 5.28183 9.59833C4.82187 8.45561 4.74972 7.19349 5.07649 6.0058C5.40325 4.81811 6.11085 3.77051 7.09061 3.0239C8.07038 2.27728 9.26815 1.87292 10.5 1.87292C11.7318 1.87292 12.9296 2.27728 13.9093 3.0239C14.8891 3.77051 15.5967 4.81811 15.9235 6.0058C16.2502 7.19349 16.1781 8.45561 15.7181 9.59833C15.2581 10.741 14.4358 11.7012 13.3773 12.3313C15.5172 13.0305 17.3508 14.5055 18.5406 16.5626C18.5956 16.6575 18.6246 16.7652 18.6247 16.8749C18.6249 16.9847 18.5961 17.0925 18.5414 17.1876Z" fill="#545759"/>
</g>
</svg>
