<svg width="25" height="24" viewBox="0 0 25 24" fill="none" xmlns="http://www.w3.org/2000/svg">
<g id="Google Logo">
<g id="logo googleg 48dp">
<path id="Shape" fill-rule="evenodd" clip-rule="evenodd" d="M22.868 12.2455C22.868 11.4797 22.7993 10.7433 22.6717 10.0364H12.5V14.214H18.3124C18.062 15.564 17.3011 16.7078 16.1573 17.4737V20.1835H19.6477C21.6898 18.3033 22.868 15.5346 22.868 12.2455Z" fill="#4285F4"/>
<path id="Shape_2" fill-rule="evenodd" clip-rule="evenodd" d="M12.4999 22.8C15.4159 22.8 17.8607 21.8329 19.6476 20.1834L16.1572 17.4736C15.1901 18.1216 13.953 18.5045 12.4999 18.5045C9.68701 18.5045 7.3061 16.6047 6.45682 14.0519H2.84863V16.8501C4.62573 20.3798 8.2781 22.8 12.4999 22.8Z" fill="#34A853"/>
<path id="Shape_3" fill-rule="evenodd" clip-rule="evenodd" d="M6.45687 14.0521C6.24087 13.4041 6.11814 12.7119 6.11814 12.0001C6.11814 11.2883 6.24087 10.5961 6.45687 9.94809V7.1499H2.84868C2.11722 8.60791 1.69995 10.2574 1.69995 12.0001C1.69995 13.7428 2.11722 15.3923 2.84868 16.8503L6.45687 14.0521Z" fill="#FBBC05"/>
<path id="Shape_4" fill-rule="evenodd" clip-rule="evenodd" d="M12.4999 5.49548C14.0856 5.49548 15.5092 6.04039 16.6285 7.11057L19.7261 4.01293C17.8558 2.2702 15.411 1.20001 12.4999 1.20001C8.2781 1.20001 4.62573 3.6202 2.84863 7.14984L6.45682 9.94803C7.3061 7.3953 9.68701 5.49548 12.4999 5.49548Z" fill="#EA4335"/>
</g>
</g>
</svg>
